<mxfile host="app.diagrams.net" agent="Mozilla/5.0 (X11; Linux x86_64) AppleWebKit/537.36 (KHTML, like Gecko) Chrome/127.0.0.0 Safari/537.36" version="24.7.7">
  <diagram name="Page-1" id="dE_4cC6vtrY4ie28P7tC">
    <mxGraphModel dx="1434" dy="793" grid="0" gridSize="10" guides="1" tooltips="1" connect="1" arrows="1" fold="1" page="0" pageScale="1" pageWidth="850" pageHeight="1100" math="0" shadow="0">
      <root>
        <mxCell id="0" />
        <mxCell id="1" parent="0" />
        <mxCell id="7vOM6eIWBhrOtLcyFHdI-10" value="" style="edgeStyle=orthogonalEdgeStyle;rounded=0;orthogonalLoop=1;jettySize=auto;html=1;" parent="1" source="7vOM6eIWBhrOtLcyFHdI-1" target="7vOM6eIWBhrOtLcyFHdI-2" edge="1">
          <mxGeometry relative="1" as="geometry" />
        </mxCell>
        <mxCell id="7vOM6eIWBhrOtLcyFHdI-1" value="&lt;font style=&quot;font-size: 24px;&quot;&gt;Embed&lt;br&gt;Texts&lt;/font&gt;" style="rounded=1;whiteSpace=wrap;html=1;fillColor=#dae8fc;strokeColor=#6c8ebf;" parent="1" vertex="1">
          <mxGeometry x="16" y="281" width="156" height="60" as="geometry" />
        </mxCell>
        <mxCell id="7vOM6eIWBhrOtLcyFHdI-11" style="edgeStyle=orthogonalEdgeStyle;rounded=0;orthogonalLoop=1;jettySize=auto;html=1;" parent="1" source="7vOM6eIWBhrOtLcyFHdI-2" target="7vOM6eIWBhrOtLcyFHdI-3" edge="1">
          <mxGeometry relative="1" as="geometry" />
        </mxCell>
        <mxCell id="7vOM6eIWBhrOtLcyFHdI-2" value="&lt;span style=&quot;font-size: 24px;&quot;&gt;Reduce&lt;br&gt;Embeddings&lt;/span&gt;" style="rounded=1;whiteSpace=wrap;html=1;fillColor=#d5e8d4;strokeColor=#82b366;" parent="1" vertex="1">
          <mxGeometry x="16" y="378" width="156" height="60" as="geometry" />
        </mxCell>
        <mxCell id="7vOM6eIWBhrOtLcyFHdI-17" style="edgeStyle=orthogonalEdgeStyle;rounded=0;orthogonalLoop=1;jettySize=auto;html=1;entryX=0;entryY=0.5;entryDx=0;entryDy=0;" parent="1" source="7vOM6eIWBhrOtLcyFHdI-3" target="7vOM6eIWBhrOtLcyFHdI-4" edge="1">
          <mxGeometry relative="1" as="geometry" />
        </mxCell>
        <mxCell id="7vOM6eIWBhrOtLcyFHdI-3" value="&lt;span style=&quot;font-size: 24px;&quot;&gt;Label &lt;br&gt;Texts&lt;/span&gt;" style="rounded=1;whiteSpace=wrap;html=1;fillColor=#f8cecc;strokeColor=#b85450;" parent="1" vertex="1">
          <mxGeometry x="16" y="475" width="156" height="60" as="geometry" />
        </mxCell>
        <mxCell id="7vOM6eIWBhrOtLcyFHdI-13" style="edgeStyle=orthogonalEdgeStyle;rounded=0;orthogonalLoop=1;jettySize=auto;html=1;" parent="1" source="7vOM6eIWBhrOtLcyFHdI-4" target="7vOM6eIWBhrOtLcyFHdI-5" edge="1">
          <mxGeometry relative="1" as="geometry" />
        </mxCell>
        <mxCell id="7vOM6eIWBhrOtLcyFHdI-4" value="&lt;font style=&quot;font-size: 24px;&quot;&gt;Score &lt;br&gt;Texts&lt;/font&gt;" style="rounded=1;whiteSpace=wrap;html=1;fillColor=#f8cecc;strokeColor=#b85450;" parent="1" vertex="1">
          <mxGeometry x="238" y="281" width="156" height="60" as="geometry" />
        </mxCell>
        <mxCell id="7vOM6eIWBhrOtLcyFHdI-14" style="edgeStyle=orthogonalEdgeStyle;rounded=0;orthogonalLoop=1;jettySize=auto;html=1;" parent="1" source="7vOM6eIWBhrOtLcyFHdI-5" target="7vOM6eIWBhrOtLcyFHdI-6" edge="1">
          <mxGeometry relative="1" as="geometry" />
        </mxCell>
        <mxCell id="7vOM6eIWBhrOtLcyFHdI-5" value="&lt;span style=&quot;font-size: 24px;&quot;&gt;Predict Outcomes&lt;/span&gt;" style="rounded=1;whiteSpace=wrap;html=1;fillColor=#d5e8d4;strokeColor=#82b366;" parent="1" vertex="1">
          <mxGeometry x="238" y="378" width="156" height="60" as="geometry" />
        </mxCell>
        <mxCell id="7vOM6eIWBhrOtLcyFHdI-18" style="edgeStyle=orthogonalEdgeStyle;rounded=0;orthogonalLoop=1;jettySize=auto;html=1;entryX=0;entryY=0.5;entryDx=0;entryDy=0;" parent="1" source="7vOM6eIWBhrOtLcyFHdI-6" target="7vOM6eIWBhrOtLcyFHdI-7" edge="1">
          <mxGeometry relative="1" as="geometry" />
        </mxCell>
        <mxCell id="7vOM6eIWBhrOtLcyFHdI-6" value="&lt;span style=&quot;font-size: 24px;&quot;&gt;Cluster&lt;br&gt;Texts&lt;/span&gt;" style="rounded=1;whiteSpace=wrap;html=1;fillColor=#d5e8d4;strokeColor=#82b366;" parent="1" vertex="1">
          <mxGeometry x="238" y="475" width="156" height="60" as="geometry" />
        </mxCell>
        <mxCell id="7vOM6eIWBhrOtLcyFHdI-15" style="edgeStyle=orthogonalEdgeStyle;rounded=0;orthogonalLoop=1;jettySize=auto;html=1;" parent="1" source="7vOM6eIWBhrOtLcyFHdI-7" target="7vOM6eIWBhrOtLcyFHdI-8" edge="1">
          <mxGeometry relative="1" as="geometry" />
        </mxCell>
        <mxCell id="7vOM6eIWBhrOtLcyFHdI-7" value="&lt;span style=&quot;font-size: 24px;&quot;&gt;Correlate&lt;br&gt;Labels&lt;/span&gt;" style="rounded=1;whiteSpace=wrap;html=1;fillColor=#ffe6cc;strokeColor=#d79b00;" parent="1" vertex="1">
          <mxGeometry x="452" y="281" width="156" height="60" as="geometry" />
        </mxCell>
        <mxCell id="7vOM6eIWBhrOtLcyFHdI-16" style="edgeStyle=orthogonalEdgeStyle;rounded=0;orthogonalLoop=1;jettySize=auto;html=1;" parent="1" source="7vOM6eIWBhrOtLcyFHdI-8" target="7vOM6eIWBhrOtLcyFHdI-9" edge="1">
          <mxGeometry relative="1" as="geometry" />
        </mxCell>
        <mxCell id="7vOM6eIWBhrOtLcyFHdI-8" value="&lt;span style=&quot;font-size: 24px;&quot;&gt;Describe&lt;br&gt;Outcomes&lt;/span&gt;" style="rounded=1;whiteSpace=wrap;html=1;fillColor=#f8cecc;strokeColor=#b85450;" parent="1" vertex="1">
          <mxGeometry x="452" y="378" width="156" height="60" as="geometry" />
        </mxCell>
        <mxCell id="7vOM6eIWBhrOtLcyFHdI-9" value="&lt;span style=&quot;font-size: 24px;&quot;&gt;Visualize&lt;br&gt;Analysis&lt;/span&gt;" style="rounded=1;whiteSpace=wrap;html=1;fillColor=#e1d5e7;strokeColor=#9673a6;" parent="1" vertex="1">
          <mxGeometry x="452" y="475" width="156" height="60" as="geometry" />
        </mxCell>
        <mxCell id="7vOM6eIWBhrOtLcyFHdI-19" value="&lt;font style=&quot;font-size: 24px;&quot;&gt;ERL&lt;/font&gt;" style="ellipse;whiteSpace=wrap;html=1;aspect=fixed;fontStyle=1;fillColor=#633B05;strokeColor=#3A5431;fontColor=#ffffff;" parent="1" vertex="1">
          <mxGeometry x="54" y="164" width="90" height="90" as="geometry" />
        </mxCell>
        <mxCell id="7vOM6eIWBhrOtLcyFHdI-21" value="&lt;font style=&quot;font-size: 24px;&quot;&gt;SPC&lt;/font&gt;" style="ellipse;whiteSpace=wrap;html=1;aspect=fixed;fontStyle=1;fillColor=#633B05;strokeColor=#3A5431;fontColor=#ffffff;" parent="1" vertex="1">
          <mxGeometry x="271" y="164" width="90" height="90" as="geometry" />
        </mxCell>
        <mxCell id="7vOM6eIWBhrOtLcyFHdI-22" value="&lt;font style=&quot;font-size: 24px;&quot;&gt;CDV&lt;/font&gt;" style="ellipse;whiteSpace=wrap;html=1;aspect=fixed;fontStyle=1;fillColor=#633B05;strokeColor=#3A5431;fontColor=#ffffff;" parent="1" vertex="1">
          <mxGeometry x="485" y="164" width="90" height="90" as="geometry" />
        </mxCell>
        <mxCell id="jO71MXd4ok5efCcEAHgf-19" style="edgeStyle=orthogonalEdgeStyle;rounded=0;orthogonalLoop=1;jettySize=auto;html=1;entryX=0.5;entryY=0;entryDx=0;entryDy=0;" edge="1" parent="1" source="7vOM6eIWBhrOtLcyFHdI-24" target="7vOM6eIWBhrOtLcyFHdI-25">
          <mxGeometry relative="1" as="geometry" />
        </mxCell>
        <mxCell id="7vOM6eIWBhrOtLcyFHdI-24" value="&lt;span style=&quot;font-size: 24px;&quot;&gt;Introduction&lt;/span&gt;" style="rounded=1;whiteSpace=wrap;html=1;fillColor=#008a00;strokeColor=#005700;fontColor=#ffffff;" parent="1" vertex="1">
          <mxGeometry x="1025" y="160" width="156" height="60" as="geometry" />
        </mxCell>
        <mxCell id="7vOM6eIWBhrOtLcyFHdI-29" style="edgeStyle=orthogonalEdgeStyle;rounded=0;orthogonalLoop=1;jettySize=auto;html=1;entryX=0.5;entryY=0;entryDx=0;entryDy=0;" parent="1" source="7vOM6eIWBhrOtLcyFHdI-25" target="7vOM6eIWBhrOtLcyFHdI-27" edge="1">
          <mxGeometry relative="1" as="geometry" />
        </mxCell>
        <mxCell id="jO71MXd4ok5efCcEAHgf-1" style="edgeStyle=orthogonalEdgeStyle;rounded=0;orthogonalLoop=1;jettySize=auto;html=1;" edge="1" parent="1" source="7vOM6eIWBhrOtLcyFHdI-25" target="7vOM6eIWBhrOtLcyFHdI-31">
          <mxGeometry relative="1" as="geometry" />
        </mxCell>
        <mxCell id="jO71MXd4ok5efCcEAHgf-18" style="edgeStyle=orthogonalEdgeStyle;rounded=0;orthogonalLoop=1;jettySize=auto;html=1;entryX=0;entryY=0.5;entryDx=0;entryDy=0;" edge="1" parent="1" source="7vOM6eIWBhrOtLcyFHdI-25" target="jO71MXd4ok5efCcEAHgf-5">
          <mxGeometry relative="1" as="geometry">
            <Array as="points">
              <mxPoint x="787" y="275" />
              <mxPoint x="787" y="498" />
            </Array>
          </mxGeometry>
        </mxCell>
        <mxCell id="7vOM6eIWBhrOtLcyFHdI-25" value="&lt;font color=&quot;#ffffff&quot; style=&quot;font-size: 24px;&quot;&gt;Clusters&lt;/font&gt;" style="rhombus;whiteSpace=wrap;html=1;fillColor=#fa6800;fontColor=#000000;strokeColor=#C73500;" parent="1" vertex="1">
          <mxGeometry x="862" y="210" width="142" height="130" as="geometry" />
        </mxCell>
        <mxCell id="7vOM6eIWBhrOtLcyFHdI-32" style="edgeStyle=orthogonalEdgeStyle;rounded=0;orthogonalLoop=1;jettySize=auto;html=1;" parent="1" source="7vOM6eIWBhrOtLcyFHdI-27" target="7vOM6eIWBhrOtLcyFHdI-31" edge="1">
          <mxGeometry relative="1" as="geometry" />
        </mxCell>
        <mxCell id="7vOM6eIWBhrOtLcyFHdI-27" value="&lt;span style=&quot;font-size: 24px;&quot;&gt;Describe&lt;br&gt;Labels&lt;/span&gt;" style="rounded=1;whiteSpace=wrap;html=1;fillColor=#1ba1e2;strokeColor=#006EAF;fontColor=#ffffff;" parent="1" vertex="1">
          <mxGeometry x="1077" y="326" width="156" height="60" as="geometry" />
        </mxCell>
        <mxCell id="7vOM6eIWBhrOtLcyFHdI-35" style="edgeStyle=orthogonalEdgeStyle;rounded=0;orthogonalLoop=1;jettySize=auto;html=1;entryX=1;entryY=0.5;entryDx=0;entryDy=0;" parent="1" source="7vOM6eIWBhrOtLcyFHdI-28" target="7vOM6eIWBhrOtLcyFHdI-31" edge="1">
          <mxGeometry relative="1" as="geometry" />
        </mxCell>
        <mxCell id="jO71MXd4ok5efCcEAHgf-22" style="edgeStyle=orthogonalEdgeStyle;rounded=0;orthogonalLoop=1;jettySize=auto;html=1;entryX=1;entryY=0.5;entryDx=0;entryDy=0;" edge="1" parent="1" source="7vOM6eIWBhrOtLcyFHdI-28" target="jO71MXd4ok5efCcEAHgf-2">
          <mxGeometry relative="1" as="geometry" />
        </mxCell>
        <mxCell id="7vOM6eIWBhrOtLcyFHdI-28" value="&lt;span style=&quot;font-size: 24px;&quot;&gt;Explain&amp;nbsp;&lt;br&gt;Correlation&lt;/span&gt;" style="rounded=1;whiteSpace=wrap;html=1;fillColor=#1ba1e2;strokeColor=#006EAF;fontColor=#ffffff;" parent="1" vertex="1">
          <mxGeometry x="1077" y="422" width="156" height="60" as="geometry" />
        </mxCell>
        <mxCell id="7vOM6eIWBhrOtLcyFHdI-31" value="&lt;span style=&quot;font-size: 24px;&quot;&gt;Cluster&lt;br&gt;Analysis&lt;/span&gt;" style="rounded=1;whiteSpace=wrap;html=1;fillColor=#008a00;strokeColor=#005700;fontColor=#ffffff;" parent="1" vertex="1">
          <mxGeometry x="855" y="378" width="156" height="60" as="geometry" />
        </mxCell>
        <mxCell id="jO71MXd4ok5efCcEAHgf-2" value="&lt;span style=&quot;font-size: 24px;&quot;&gt;Conclusion&lt;/span&gt;" style="rounded=1;whiteSpace=wrap;html=1;fillColor=#008a00;strokeColor=#005700;fontColor=#ffffff;" vertex="1" parent="1">
          <mxGeometry x="965" y="552" width="156" height="60" as="geometry" />
        </mxCell>
        <mxCell id="jO71MXd4ok5efCcEAHgf-21" style="edgeStyle=orthogonalEdgeStyle;rounded=0;orthogonalLoop=1;jettySize=auto;html=1;entryX=0;entryY=0.5;entryDx=0;entryDy=0;" edge="1" parent="1" source="jO71MXd4ok5efCcEAHgf-5" target="jO71MXd4ok5efCcEAHgf-2">
          <mxGeometry relative="1" as="geometry" />
        </mxCell>
        <mxCell id="jO71MXd4ok5efCcEAHgf-5" value="&lt;span style=&quot;font-size: 24px;&quot;&gt;Summary&lt;/span&gt;" style="rounded=1;whiteSpace=wrap;html=1;fillColor=#1ba1e2;strokeColor=#006EAF;fontColor=#ffffff;" vertex="1" parent="1">
          <mxGeometry x="855" y="468" width="156" height="60" as="geometry" />
        </mxCell>
        <mxCell id="jO71MXd4ok5efCcEAHgf-11" value="&lt;font style=&quot;font-size: 24px;&quot;&gt;Labels&lt;/font&gt;" style="whiteSpace=wrap;html=1;aspect=fixed;fillColor=#fa6800;fontColor=#FFFFFF;strokeColor=#C73500;" vertex="1" parent="1">
          <mxGeometry x="1242" y="168" width="96" height="96" as="geometry" />
        </mxCell>
        <mxCell id="jO71MXd4ok5efCcEAHgf-12" style="edgeStyle=orthogonalEdgeStyle;rounded=0;orthogonalLoop=1;jettySize=auto;html=1;entryX=1;entryY=0.633;entryDx=0;entryDy=0;entryPerimeter=0;" edge="1" parent="1" source="jO71MXd4ok5efCcEAHgf-11" target="7vOM6eIWBhrOtLcyFHdI-28">
          <mxGeometry relative="1" as="geometry">
            <Array as="points">
              <mxPoint x="1289" y="173" />
              <mxPoint x="1289" y="460" />
            </Array>
          </mxGeometry>
        </mxCell>
        <mxCell id="jO71MXd4ok5efCcEAHgf-15" value="Analysis Flow" style="text;html=1;align=center;verticalAlign=middle;resizable=0;points=[];autosize=1;strokeColor=none;fillColor=none;fontSize=36;fontStyle=1" vertex="1" parent="1">
          <mxGeometry x="197" y="65" width="238" height="55" as="geometry" />
        </mxCell>
        <mxCell id="jO71MXd4ok5efCcEAHgf-20" value="Prompt Engineering" style="text;html=1;align=center;verticalAlign=middle;resizable=0;points=[];autosize=1;strokeColor=none;fillColor=none;fontSize=36;fontStyle=1" vertex="1" parent="1">
          <mxGeometry x="900" y="65" width="336" height="55" as="geometry" />
        </mxCell>
      </root>
    </mxGraphModel>
  </diagram>
</mxfile>
